<svg width="16" height="16" viewBox="0 0 16 16" fill="none" xmlns="http://www.w3.org/2000/svg">
<path d="M7.33331 2.88889C7.33331 3.37981 7.73128 3.77778 8.2222 3.77778C8.71311 3.77778 9.11108 3.37981 9.11108 2.88889C9.11108 2.39797 8.71311 2 8.2222 2C7.73128 2 7.33331 2.39797 7.33331 2.88889Z" fill="#C9D4EA" stroke="#C9D4EA" stroke-width="2"/>
<path d="M7.33331 7.66672C7.33331 8.15764 7.73128 8.55561 8.2222 8.55561C8.71311 8.55561 9.11108 8.15764 9.11108 7.66672C9.11108 7.1758 8.71311 6.77783 8.2222 6.77783C7.73128 6.77783 7.33331 7.1758 7.33331 7.66672Z" fill="#C9D4EA" stroke="#C9D4EA" stroke-width="2"/>
<path d="M7.33331 12.4444C7.33331 12.9354 7.73128 13.3333 8.2222 13.3333C8.71311 13.3333 9.11108 12.9354 9.11108 12.4444C9.11108 11.9535 8.71311 11.5555 8.2222 11.5555C7.73128 11.5555 7.33331 11.9535 7.33331 12.4444Z" fill="#C9D4EA" stroke="#C9D4EA" stroke-width="2"/>
</svg>
